<?xml version="1.0" encoding="UTF-8" standalone="no"?>
<!DOCTYPE svg PUBLIC "-//W3C//DTD SVG 1.1//EN" "http://www.w3.org/Graphics/SVG/1.1/DTD/svg11.dtd">
<svg xmlns="http://www.w3.org/2000/svg" version="1.1" viewBox="0.00 0.00 500.00 179.00">
<g stroke-width="2.00" fill="none" stroke-linecap="butt">
<path stroke="#a87dc0" vector-effect="non-scaling-stroke" d="
  M 83.93 24.24
  Q 82.82 24.68 82.25 24.68
  Q 61.00 24.70 39.75 24.47
  Q 38.64 24.46 37.57 24.21"
/>
<path stroke="#69bbe0" vector-effect="non-scaling-stroke" d="
  M 65.11 13.86
  A 4.20 4.20 0.0 0 0 60.91 9.66
  A 4.20 4.20 0.0 0 0 56.71 13.86
  A 4.20 4.20 0.0 0 0 60.91 18.06
  A 4.20 4.20 0.0 0 0 65.11 13.86"
/>
</g>
<path fill="#c6b7e0" d="
  M 83.93 24.24
  Q 82.82 24.68 82.25 24.68
  Q 61.00 24.70 39.75 24.47
  Q 38.64 24.46 37.57 24.21
  L 37.22 14.67
  Q 37.20 14.12 37.75 14.12
  L 43.21 14.12
  Q 43.70 14.12 43.77 13.63
  C 44.43 8.80 46.75 5.33 51.88 5.26
  Q 59.73 5.17 67.59 5.21
  C 73.91 5.25 76.90 7.32 78.02 13.51
  Q 78.14 14.14 78.78 14.15
  L 83.98 14.22
  Q 84.46 14.22 84.43 14.70
  L 83.93 24.24
  Z
  M 65.11 13.86
  A 4.20 4.20 0.0 0 0 60.91 9.66
  A 4.20 4.20 0.0 0 0 56.71 13.86
  A 4.20 4.20 0.0 0 0 60.91 18.06
  A 4.20 4.20 0.0 0 0 65.11 13.86
  Z"
/>
<circle fill="#0cbfe0" cx="60.91" cy="13.86" r="4.20"/>
<path fill="#8a42a0" d="
  M 37.57 24.21
  Q 38.64 24.46 39.75 24.47
  Q 61.00 24.70 82.25 24.68
  Q 82.82 24.68 83.93 24.24
  C 86.12 25.42 95.48 24.71 98.41 24.71
  Q 103.59 24.72 105.83 26.04
  C 109.49 28.19 110.26 31.40 110.26 35.75
  Q 110.29 89.86 110.26 143.96
  C 110.26 153.18 108.11 156.59 98.80 156.61
  Q 37.56 156.76 20.99 156.62
  Q 14.83 156.56 12.42 152.05
  Q 11.12 149.60 11.13 143.48
  Q 11.28 88.87 11.09 34.25
  C 11.07 29.32 15.60 24.77 20.20 24.74
  Q 28.45 24.69 36.70 24.69
  Q 37.00 24.69 37.19 24.58
  Q 37.44 24.42 37.57 24.21
  Z
  M 104.3436 43.0162
  A 8.44 8.44 0.0 0 0 95.9183 34.5615
  L 25.5184 34.4387
  A 8.44 8.44 0.0 0 0 17.0637 42.8639
  L 16.8964 138.7038
  A 8.44 8.44 0.0 0 0 25.3217 147.1585
  L 95.7216 147.2813
  A 8.44 8.44 0.0 0 0 104.1763 138.8561
  L 104.3436 43.0162
  Z"
/>
<path fill="#0cbfe0" d="
  M 42.04 65.44
  A 0.32 0.32 0.0 0 1 41.72 65.76
  L 26.06 65.76
  A 0.32 0.32 0.0 0 1 25.74 65.44
  L 25.74 49.56
  A 0.32 0.32 0.0 0 1 26.06 49.24
  L 41.72 49.24
  A 0.32 0.32 0.0 0 1 42.04 49.56
  L 42.04 65.44
  Z
  M 31.29 59.98
  L 29.27 58.13
  A 0.73 0.73 0.0 0 0 28.06 58.56
  L 27.99 59.04
  A 1.69 1.68 -67.8 0 0 28.66 60.65
  L 31.98 63.10
  A 1.11 1.11 0.0 0 0 33.74 62.39
  Q 34.64 56.96 39.25 53.98
  A 1.76 1.75 66.5 0 0 39.99 52.09
  L 39.91 51.76
  A 0.79 0.79 0.0 0 0 38.66 51.32
  C 35.14 53.99 33.91 56.39 32.23 59.80
  Q 31.88 60.52 31.29 59.98
  Z"
/>
<path fill="#0cbfe0" d="
  M 47.15 49.67
  A 0.54 0.54 0.0 0 1 47.70 49.13
  L 90.26 49.28
  A 2.10 0.90 0.2 0 1 92.35 50.19
  L 92.35 51.89
  A 2.10 0.90 0.2 0 1 90.24 52.78
  L 47.68 52.63
  A 0.54 0.54 0.0 0 1 47.15 52.09
  L 47.15 49.67
  Z"
/>
<path fill="#8a42a0" d="
  M 343.65 79.16
  C 345.49 82.45 344.58 91.23 344.56 95.25
  C 344.55 96.36 345.29 97.12 345.60 97.85
  C 346.52 99.98 347.59 101.73 347.17 104.16
  Q 346.23 109.63 344.71 114.98
  Q 344.56 115.51 344.01 115.51
  L 332.75 115.50
  Q 332.22 115.50 331.96 115.05
  C 330.31 112.16 328.82 109.96 328.83 106.44
  Q 328.84 101.44 328.82 96.47
  C 328.80 92.95 327.51 90.69 325.93 87.74
  A 1.22 1.19 -51.4 0 1 325.84 86.81
  Q 327.54 81.16 328.70 75.43
  C 329.07 73.61 328.00 72.74 328.24 71.12
  Q 329.04 65.79 330.70 60.67
  Q 330.83 60.25 331.27 60.25
  L 342.50 60.24
  A 1.13 1.12 70.9 0 1 343.39 60.68
  C 345.28 63.14 346.86 65.60 346.17 68.91
  Q 345.17 73.70 343.57 78.32
  A 1.05 1.00 40.8 0 0 343.65 79.16
  Z
  M 329.69 69.86
  A 0.35 0.35 0.0 0 0 330.03 70.29
  L 339.57 70.26
  A 0.35 0.35 0.0 0 0 339.91 69.97
  L 341.34 61.92
  A 0.35 0.35 0.0 0 0 340.99 61.51
  L 332.01 61.51
  A 0.35 0.35 0.0 0 0 331.67 61.78
  L 329.69 69.86
  Z
  M 329.93 86.23
  A 0.35 0.35 0.0 0 1 330.28 86.58
  L 330.31 107.60
  A 0.35 0.35 0.0 0 0 330.66 107.95
  L 340.15 107.97
  A 0.35 0.35 0.0 0 0 340.49 107.71
  L 343.10 98.33
  A 0.35 0.35 0.0 0 0 342.76 97.88
  L 340.85 97.94
  A 0.35 0.35 0.0 0 1 340.49 97.59
  L 340.50 76.06
  A 0.35 0.35 0.0 0 0 340.15 75.71
  L 329.98 75.68
  A 0.35 0.35 0.0 0 0 329.63 75.96
  L 327.68 85.79
  A 0.35 0.35 0.0 0 0 328.02 86.20
  L 329.93 86.23
  Z"
/>
<path fill="#8a42a0" d="
  M 153.84 66.16
  C 156.27 68.24 157.99 69.32 159.53 72.03
  Q 160.23 73.28 161.43 75.28
  Q 167.75 85.78 165.32 97.78
  C 164.42 102.23 160.14 108.85 156.13 111.23
  C 154.41 112.26 152.65 113.46 150.93 114.20
  C 142.22 117.93 133.47 115.71 126.26 110.70
  C 122.47 108.06 120.98 104.43 118.76 100.52
  C 113.21 90.72 112.70 79.04 120.03 70.00
  C 128.01 60.17 143.97 57.71 153.84 66.16
  Z
  M 162.21 85.56
  A 23.23 23.23 0.0 0 0 138.98 62.33
  A 23.23 23.23 0.0 0 0 115.75 85.56
  A 23.23 23.23 0.0 0 0 138.98 108.79
  A 23.23 23.23 0.0 0 0 162.21 85.56
  Z"
/>
<rect fill="#0cbfe0" x="47.16" y="62.18" width="45.88" height="3.82" rx="0.39"/>
<path fill="#8a42a0" d="
  M 468.50 106.43
  L 468.50 124.25
  A 0.26 0.25 -90.0 0 1 468.25 124.51
  L 454.33 124.51
  Q 453.82 124.51 453.58 124.06
  L 448.58 114.66
  A 0.82 0.69 34.6 0 1 448.48 114.29
  L 448.49 106.50
  Q 448.49 105.89 447.88 105.89
  L 435.49 105.88
  Q 434.94 105.88 434.72 105.37
  Q 433.03 101.48 431.02 97.77
  C 429.05 94.15 429.97 86.16 430.00 81.96
  Q 430.01 81.46 430.51 81.46
  L 447.92 81.36
  Q 448.48 81.36 448.48 80.80
  L 448.48 63.56
  A 0.46 0.46 0.0 0 1 448.94 63.10
  L 463.26 63.07
  A 0.75 0.75 0.0 0 1 463.96 63.52
  Q 465.70 67.59 467.61 71.54
  C 469.05 74.52 468.45 77.68 468.53 80.87
  A 0.50 0.50 0.0 0 0 469.03 81.36
  L 481.54 81.38
  Q 482.18 81.38 482.44 81.95
  Q 484.20 85.72 485.86 89.46
  C 487.82 93.87 486.98 100.71 486.95 105.48
  A 0.42 0.41 -0.0 0 1 486.53 105.89
  L 469.07 105.85
  Q 468.50 105.85 468.50 106.43
  Z
  M 450.42 94.50
  A 0.38 0.38 0.0 0 1 450.80 94.88
  L 450.80 112.67
  A 0.38 0.38 0.0 0 0 451.18 113.05
  L 461.66 112.99
  A 0.38 0.38 0.0 0 0 462.04 112.61
  L 462.01 94.88
  A 0.38 0.38 0.0 0 1 462.39 94.50
  L 480.07 94.50
  A 0.38 0.38 0.0 0 0 480.45 94.12
  L 480.45 84.13
  A 0.38 0.38 0.0 0 0 480.07 83.75
  L 462.41 83.75
  A 0.38 0.38 0.0 0 1 462.03 83.37
  L 462.05 65.70
  A 0.38 0.38 0.0 0 0 461.67 65.32
  L 451.16 65.28
  A 0.38 0.38 0.0 0 0 450.78 65.66
  L 450.84 83.35
  A 0.38 0.38 0.0 0 1 450.46 83.73
  L 432.64 83.72
  A 0.38 0.38 0.0 0 0 432.26 84.10
  L 432.26 94.13
  A 0.38 0.38 0.0 0 0 432.64 94.51
  L 450.42 94.50
  Z"
/>
<path fill="#0cbfe0" d="
  M 42.0436 88.6158
  A 0.37 0.37 0.0 0 1 41.6743 88.9864
  L 26.1343 89.0135
  A 0.37 0.37 0.0 0 1 25.7637 88.6442
  L 25.7364 73.0042
  A 0.37 0.37 0.0 0 1 26.1057 72.6336
  L 41.6457 72.6065
  A 0.37 0.37 0.0 0 1 42.0163 72.9758
  L 42.0436 88.6158
  Z
  M 31.40 83.43
  L 29.58 81.80
  A 0.95 0.94 27.7 0 0 28.03 82.28
  Q 27.77 83.36 28.80 84.44
  Q 30.29 85.98 32.29 86.76
  A 1.12 1.12 0.0 0 0 33.80 85.90
  C 34.60 81.13 36.95 79.71 40.05 76.29
  A 0.77 0.77 0.0 0 0 39.90 75.13
  L 39.68 74.99
  Q 38.74 74.39 37.92 75.15
  Q 34.21 78.61 32.12 83.28
  Q 31.87 83.85 31.40 83.43
  Z"
/>
<path fill="#8a42a0" d="
  M 150.50 85.55
  A 11.41 11.41 0.0 0 1 139.09 96.96
  A 11.41 11.41 0.0 0 1 127.68 85.55
  A 11.41 11.41 0.0 0 1 139.09 74.14
  A 11.41 11.41 0.0 0 1 150.50 85.55
  Z
  M 148.4193 84.5517
  A 8.97 6.87 -24.7 0 0 137.3993 82.0585
  A 8.97 6.87 -24.7 0 0 132.1207 92.0483
  A 8.97 6.87 -24.7 0 0 143.1407 94.5415
  A 8.97 6.87 -24.7 0 0 148.4193 84.5517
  Z"
/>
<path fill="#8a42a0" d="
  M 185.10 76.95
  Q 188.91 73.67 193.97 74.51
  Q 194.38 74.58 194.60 74.92
  Q 196.85 78.53 196.78 81.00
  Q 196.70 83.89 193.46 93.52
  Q 193.31 93.96 192.86 93.96
  Q 186.68 94.00 186.21 100.00
  Q 185.95 103.41 186.16 114.82
  A 0.66 0.66 0.0 0 1 185.50 115.49
  L 174.28 115.50
  Q 173.82 115.50 173.59 115.10
  Q 170.90 110.51 170.91 108.76
  Q 170.95 102.53 170.92 96.33
  C 170.91 93.10 168.90 90.53 167.59 87.69
  Q 167.38 87.24 167.52 86.75
  L 170.74 74.93
  Q 170.86 74.48 171.32 74.48
  L 183.29 74.49
  A 0.72 0.71 82.6 0 1 183.98 75.03
  L 184.41 76.73
  A 0.43 0.42 -27.0 0 0 185.10 76.95
  Z
  M 171.88 86.69
  L 171.98 107.58
  A 0.38 0.37 -0.0 0 0 172.36 107.95
  L 181.75 107.97
  A 0.51 0.50 -0.0 0 0 182.26 107.47
  C 182.21 102.41 181.18 93.65 183.77 89.29
  C 185.12 87.04 186.78 86.51 189.27 86.79
  A 0.58 0.57 9.4 0 0 189.90 86.35
  L 192.27 76.18
  A 0.54 0.54 0.0 0 0 191.68 75.52
  C 187.59 76.03 185.72 78.48 182.82 81.00
  Q 182.24 81.50 182.24 80.74
  L 182.23 76.23
  A 0.50 0.49 89.4 0 0 181.73 75.73
  L 172.32 75.75
  A 0.65 0.63 -83.1 0 0 171.70 76.25
  L 169.47 85.67
  A 0.47 0.46 -83.1 0 0 169.92 86.25
  L 171.44 86.25
  Q 171.87 86.25 171.88 86.69
  Z"
/>
<path fill="#8a42a0" d="
  M 264.17 75.25
  Q 264.22 75.05 264.28 74.87
  Q 264.41 74.49 264.80 74.49
  L 276.00 74.50
  A 0.86 0.86 0.0 0 1 276.76 74.96
  C 278.19 77.76 279.41 80.21 279.41 83.52
  Q 279.40 89.60 279.47 95.69
  Q 279.47 96.16 279.69 96.57
  L 282.80 102.43
  A 0.90 0.86 -52.7 0 1 282.87 103.07
  L 279.52 115.06
  Q 279.40 115.51 278.94 115.51
  L 269.47 115.50
  Q 268.90 115.50 268.66 114.98
  L 267.75 112.99
  Q 267.35 112.11 266.97 113.00
  L 266.12 114.99
  A 0.82 0.82 0.0 0 1 265.42 115.48
  C 259.14 115.88 253.68 115.47 248.79 111.25
  C 246.49 109.27 245.29 106.19 243.80 103.45
  C 240.27 97.00 239.10 88.63 243.28 82.24
  Q 250.56 71.08 263.69 75.50
  A 0.38 0.38 0.0 0 0 264.17 75.25
  Z
  M 265.50 104.00
  L 265.50 107.48
  A 0.48 0.48 0.0 0 0 265.98 107.96
  L 275.35 107.96
  Q 275.92 107.96 276.07 107.41
  L 278.43 98.74
  A 0.72 0.72 0.0 0 0 277.71 97.83
  L 276.19 97.87
  Q 275.62 97.88 275.62 97.31
  L 275.62 76.30
  Q 275.62 75.72 275.05 75.72
  L 265.94 75.72
  Q 265.35 75.72 265.41 76.31
  L 265.50 77.20
  Q 265.55 77.74 265.05 77.51
  Q 259.03 74.76 253.85 75.94
  C 242.14 78.60 238.54 94.35 246.25 103.26
  Q 247.99 105.27 250.51 106.12
  Q 256.43 108.12 262.80 107.97
  A 0.77 0.76 11.7 0 0 263.48 107.53
  L 265.15 103.92
  Q 265.50 103.17 265.50 104.00
  Z"
/>
<path fill="#8a42a0" d="
  M 404.38 113.03
  L 403.76 114.83
  Q 403.62 115.25 403.18 115.30
  C 396.20 116.09 388.08 115.29 384.16 108.52
  Q 382.76 106.11 381.41 103.68
  C 377.48 96.58 376.45 86.19 382.63 79.89
  C 383.96 78.54 385.16 76.93 386.83 76.11
  Q 393.71 72.71 401.15 75.48
  Q 401.66 75.67 401.68 75.13
  Q 401.69 74.97 401.75 74.82
  Q 401.87 74.50 402.22 74.50
  L 413.25 74.49
  A 1.51 1.49 -7.6 0 1 414.70 75.59
  C 415.42 78.18 416.88 80.19 416.89 82.90
  Q 416.90 89.28 416.89 95.64
  Q 416.89 96.06 417.09 96.43
  L 420.20 102.24
  A 1.34 1.32 39.1 0 1 420.31 103.24
  L 417.01 115.06
  Q 416.89 115.50 416.44 115.50
  L 407.02 115.50
  Q 406.46 115.50 406.21 115.01
  L 405.16 112.97
  Q 404.70 112.08 404.38 113.03
  Z
  M 403.13 103.53
  L 403.13 107.42
  Q 403.13 107.97 403.67 107.97
  L 413.02 107.95
  A 0.60 0.59 6.8 0 0 413.60 107.50
  L 415.86 98.51
  Q 416.05 97.72 415.24 97.76
  L 414.01 97.83
  A 0.83 0.83 0.0 0 1 413.14 97.00
  L 413.12 76.17
  A 0.45 0.45 0.0 0 0 412.67 75.72
  L 403.53 75.71
  Q 403.02 75.71 403.05 76.22
  L 403.12 77.24
  Q 403.17 78.07 402.45 77.66
  C 386.47 68.38 372.86 89.57 383.22 102.58
  Q 385.32 105.21 388.91 106.39
  Q 394.43 108.19 400.37 107.94
  Q 400.83 107.92 401.02 107.51
  L 402.85 103.47
  Q 403.13 102.85 403.13 103.53
  Z"
/>
<path fill="#8a42a0" d="
  M 221.51 75.01
  Q 221.55 74.86 221.59 74.66
  Q 221.62 74.50 221.78 74.50
  L 233.74 74.49
  Q 234.25 74.49 234.41 74.98
  C 235.37 77.97 237.02 80.24 237.02 83.43
  Q 237.04 98.22 237.06 113.00
  C 237.06 118.37 234.98 122.84 229.84 125.10
  C 221.72 128.66 212.62 126.29 204.32 124.48
  Q 203.81 124.37 203.64 123.87
  L 201.86 118.46
  A 1.80 1.80 0.0 0 1 201.82 117.51
  L 204.02 107.78
  A 0.99 0.96 39.2 0 0 203.94 107.12
  C 199.15 97.98 194.59 89.88 201.82 80.62
  C 207.39 73.48 212.76 74.03 220.91 75.40
  Q 221.38 75.47 221.51 75.01
  Z
  M 222.25 78.24
  C 210.58 70.34 198.41 81.34 199.74 93.75
  Q 200.52 101.01 206.90 104.06
  C 210.75 105.91 216.51 105.56 220.82 105.41
  Q 223.66 105.31 222.42 107.86
  L 222.17 108.38
  Q 220.92 110.96 218.08 111.31
  Q 211.83 112.08 206.02 109.68
  Q 204.82 109.19 204.56 110.45
  L 203.23 116.70
  A 1.05 1.04 11.5 0 0 204.06 117.95
  C 211.33 119.30 224.90 121.85 230.04 115.83
  C 232.33 113.15 233.07 110.60 233.11 106.85
  Q 233.29 91.44 233.16 76.14
  A 0.44 0.43 0.7 0 0 232.73 75.71
  L 223.26 75.70
  Q 222.71 75.70 222.71 76.24
  L 222.71 77.99
  Q 222.71 78.55 222.25 78.24
  Z"
/>
<path fill="#8a42a0" d="
  M 302.25 93.75
  L 302.26 115.00
  Q 302.26 115.50 301.75 115.50
  L 290.31 115.50
  Q 289.91 115.50 289.72 115.14
  C 288.22 112.18 286.52 109.92 286.47 106.46
  Q 286.40 101.26 286.33 96.08
  C 286.29 93.04 285.18 91.46 284.14 88.71
  Q 283.59 87.27 283.88 85.71
  Q 284.83 80.56 286.31 75.02
  A 0.71 0.71 0.0 0 1 287.00 74.49
  L 298.60 74.49
  Q 299.15 74.49 299.49 74.91
  L 299.82 75.32
  Q 300.27 75.87 300.65 75.26
  L 300.82 74.98
  Q 301.11 74.52 301.65 74.51
  C 305.21 74.44 313.45 73.42 316.48 77.04
  C 321.12 82.59 321.84 87.93 321.74 95.04
  Q 321.73 95.57 321.98 96.02
  L 325.50 102.33
  Q 325.78 102.82 325.62 103.36
  L 322.19 114.99
  Q 322.04 115.50 321.50 115.50
  L 310.03 115.51
  Q 309.56 115.51 309.36 115.08
  C 308.03 112.12 306.40 109.85 306.39 106.47
  Q 306.38 100.06 306.37 93.86
  Q 306.37 93.43 305.94 93.41
  L 302.75 93.26
  Q 302.25 93.24 302.25 93.75
  Z
  M 297.94 81.18
  L 297.99 76.24
  Q 297.99 75.73 297.48 75.73
  L 288.21 75.75
  Q 287.64 75.75 287.50 76.29
  L 285.03 85.75
  A 0.47 0.46 -84.4 0 0 285.50 86.33
  L 287.47 86.24
  Q 287.97 86.22 287.97 86.72
  L 288.01 107.60
  A 0.35 0.35 0.0 0 0 288.36 107.95
  L 297.52 107.96
  A 0.48 0.48 0.0 0 0 298.00 107.48
  L 297.97 86.55
  Q 297.97 86.15 298.37 86.11
  C 306.64 85.36 308.07 86.80 308.01 94.75
  Q 307.96 101.09 308.01 107.46
  Q 308.01 107.96 308.50 107.95
  L 318.10 107.95
  A 0.71 0.71 0.0 0 0 318.79 107.42
  L 321.23 98.50
  A 0.47 0.47 0.0 0 0 320.75 97.91
  L 318.51 98.02
  Q 317.93 98.05 317.93 97.47
  Q 317.98 91.60 318.03 85.75
  C 318.13 74.83 310.57 75.45 302.62 75.76
  Q 301.61 75.80 301.12 76.68
  L 298.51 81.34
  Q 297.93 82.38 297.94 81.18
  Z"
/>
<path fill="#8a42a0" d="
  M 354.29 93.59
  L 353.16 93.49
  A 0.44 0.44 0.0 0 1 352.79 93.21
  L 350.41 87.11
  A 0.44 0.44 0.0 0 1 350.39 86.84
  L 353.35 74.82
  A 0.44 0.44 0.0 0 1 353.78 74.48
  L 373.42 74.49
  A 0.44 0.44 0.0 0 1 373.81 74.74
  L 376.35 79.92
  A 0.44 0.44 0.0 0 1 376.37 80.25
  L 371.16 95.88
  A 0.44 0.44 0.0 0 0 371.57 96.46
  L 373.25 96.50
  A 0.44 0.44 0.0 0 1 373.63 96.74
  L 376.47 102.29
  A 0.44 0.44 0.0 0 1 376.51 102.60
  L 373.09 115.18
  A 0.44 0.44 0.0 0 1 372.66 115.50
  L 353.37 115.51
  A 0.44 0.44 0.0 0 1 352.98 115.27
  L 350.04 109.56
  A 0.44 0.44 0.0 0 1 350.01 109.23
  L 354.68 94.15
  A 0.44 0.44 0.0 0 0 354.29 93.59
  Z
  M 358.19 85.89
  Q 358.69 85.89 358.54 86.37
  L 351.98 107.38
  Q 351.80 107.96 352.41 107.96
  L 367.99 107.95
  Q 369.71 107.95 370.07 106.28
  L 371.58 99.40
  Q 371.91 97.90 370.38 97.91
  L 365.72 97.93
  Q 365.20 97.94 365.25 97.41
  Q 365.42 95.77 365.92 94.21
  Q 368.50 86.29 371.58 77.30
  Q 372.11 75.75 370.47 75.75
  L 354.77 75.75
  Q 354.28 75.75 354.19 76.23
  L 352.49 85.30
  Q 352.37 85.97 353.05 85.96
  L 358.19 85.89
  Z"
/>
<rect fill="#0cbfe0" x="47.12" y="75.48" width="45.94" height="3.90" rx="0.42"/>
<path fill="#8a42a0" d="
  M 210.18 88.39
  C 211.28 84.84 217.00 84.29 219.67 85.73
  C 223.13 87.60 223.06 93.33 222.66 96.65
  Q 222.61 97.05 222.21 97.10
  C 215.85 97.96 207.60 96.75 210.18 88.39
  Z
  M 215.38 95.86
  L 221.06 95.65
  A 0.68 0.68 0.0 0 0 221.71 94.95
  L 221.71 94.76
  A 2.85 2.45 -2.1 0 0 218.77 92.42
  L 217.43 92.47
  A 2.85 2.45 -2.1 0 0 214.67 95.02
  L 214.68 95.21
  A 0.68 0.68 0.0 0 0 215.38 95.86
  Z"
/>
<path fill="#8a42a0" d="
  M 255.24 97.40
  C 252.83 96.50 251.80 91.98 252.35 89.70
  C 253.57 84.72 259.62 83.77 263.26 86.57
  C 266.10 88.74 265.66 94.51 265.40 97.70
  Q 265.36 98.17 264.89 98.23
  Q 259.36 98.93 255.24 97.40
  Z
  M 260.17 92.37
  A 1.36 1.36 0.0 0 0 259.24 92.62
  L 257.00 94.27
  A 1.36 1.36 0.0 0 0 257.76 96.72
  L 262.66 96.90
  A 1.36 1.36 0.0 0 0 264.07 95.57
  L 264.10 94.00
  A 1.36 1.36 0.0 0 0 262.86 92.62
  L 260.17 92.37
  Z"
/>
<path fill="#8a42a0" d="
  M 389.74 92.26
  C 389.08 82.81 402.18 83.06 402.80 90.26
  Q 403.14 94.12 403.06 97.72
  A 0.61 0.61 0.0 0 1 402.49 98.32
  C 397.51 98.64 390.20 99.00 389.74 92.26
  Z
  M 397.18 92.40
  A 1.10 1.10 0.0 0 0 396.34 92.71
  L 394.17 94.82
  A 1.10 1.10 0.0 0 0 394.90 96.71
  L 400.47 96.93
  A 1.10 1.10 0.0 0 0 401.61 95.88
  L 401.72 93.79
  A 1.10 1.10 0.0 0 0 400.69 92.64
  L 397.18 92.40
  Z"
/>
<rect fill="#0cbfe0" x="47.11" y="88.96" width="45.92" height="3.84" rx="0.28"/>
<path fill="#0cbfe0" d="
  M 42.0263 112.0042
  A 0.33 0.33 0.0 0 1 41.6957 112.3336
  L 26.0758 112.3064
  A 0.33 0.33 0.0 0 1 25.7463 111.9758
  L 25.7737 96.3158
  A 0.33 0.33 0.0 0 1 26.1043 95.9864
  L 41.7242 96.0136
  A 0.33 0.33 0.0 0 1 42.0537 96.3442
  L 42.0263 112.0042
  Z
  M 31.37 106.45
  Q 30.18 105.38 29.40 105.21
  Q 26.82 104.68 28.38 106.62
  Q 30.06 108.71 32.26 110.26
  A 0.84 0.84 0.0 0 0 33.57 109.72
  Q 34.65 103.90 39.41 100.11
  C 39.93 99.70 40.19 99.00 39.94 98.42
  Q 39.73 97.95 39.25 98.14
  C 34.92 99.83 34.28 103.05 32.12 106.35
  Q 31.81 106.84 31.37 106.45
  Z"
/>
<rect fill="#0cbfe0" x="47.18" y="102.19" width="45.86" height="3.58" rx="0.32"/>
<rect fill="#0cbfe0" x="-22.94" y="-1.68" transform="translate(70.10,117.32) rotate(-0.1)" width="45.88" height="3.36" rx="0.38"/>
<path fill="#0cbfe0" d="
  M 199.88 147.09
  Q 201.05 148.29 202.48 147.31
  A 1.68 1.64 -62.2 0 1 203.38 147.02
  Q 204.75 147.01 206.08 147.03
  C 207.59 147.06 209.04 147.82 210.80 147.55
  Q 211.32 147.48 211.68 147.62
  Q 211.91 147.71 212.12 147.82
  A 1.82 1.79 -32.8 0 0 212.99 148.00
  Q 220.92 147.54 228.76 148.92
  Q 230.08 149.15 231.26 148.61
  A 1.53 1.48 34.1 0 1 232.00 148.48
  Q 236.40 148.80 240.74 149.46
  Q 244.36 150.00 245.66 150.94
  A 0.20 0.19 34.1 0 0 245.94 150.89
  L 246.21 150.50
  Q 246.51 150.06 247.04 150.05
  Q 251.63 150.01 254.93 151.34
  C 257.22 152.26 259.07 151.82 260.99 152.36
  C 264.98 153.48 268.10 154.28 272.82 155.02
  C 278.27 155.87 282.61 158.11 288.67 159.08
  Q 289.12 159.15 289.43 159.48
  L 290.34 160.45
  Q 290.73 160.86 291.23 160.61
  C 292.16 160.17 292.51 160.14 293.56 160.50
  C 296.76 161.58 299.18 161.79 302.81 163.87
  C 304.83 165.03 306.90 165.38 309.06 166.19
  A 0.55 0.54 -77.9 0 1 309.41 166.74
  L 309.38 167.11
  A 0.19 0.19 0.0 0 1 309.13 167.28
  Q 306.85 166.51 304.59 165.62
  C 303.41 165.16 301.99 164.07 300.21 163.89
  Q 299.71 163.84 299.41 163.42
  C 298.31 161.87 295.48 162.07 293.00 161.99
  Q 290.14 161.90 285.94 160.42
  C 282.86 159.34 279.17 159.21 275.99 157.54
  Q 273.66 156.33 272.27 156.14
  C 270.44 155.90 268.71 156.15 266.95 155.61
  Q 263.75 154.62 260.51 153.84
  Q 259.89 153.69 257.47 153.68
  Q 255.69 153.67 254.16 152.52
  Q 253.75 152.21 253.75 152.72
  Q 253.75 152.92 253.70 153.09
  Q 253.61 153.40 253.29 153.37
  C 251.02 153.21 249.01 152.29 246.91 152.11
  Q 242.32 151.71 237.76 151.13
  C 235.76 150.87 232.15 150.86 229.39 150.33
  C 225.91 149.65 222.23 150.12 218.66 149.78
  Q 214.80 149.40 211.31 149.49
  C 201.12 149.74 191.00 149.43 180.80 150.07
  Q 179.95 150.12 179.63 149.53
  A 0.67 0.67 0.0 0 1 180.04 148.55
  Q 184.41 147.40 188.35 145.58
  C 190.25 144.71 191.77 145.41 193.26 144.97
  Q 198.31 143.49 201.51 143.04
  C 203.81 142.71 205.67 142.03 207.79 141.46
  C 210.37 140.76 213.66 142.40 215.57 140.52
  Q 215.92 140.17 216.40 140.08
  C 224.77 138.43 230.99 138.50 239.25 137.29
  C 239.70 137.23 240.28 137.53 240.92 137.45
  C 252.00 136.07 263.82 136.74 275.10 136.46
  C 288.28 136.14 299.65 136.89 311.95 136.79
  Q 312.42 136.79 312.83 137.01
  C 313.56 137.41 313.88 137.53 314.73 137.27
  Q 317.05 136.57 320.25 136.75
  Q 331.49 137.39 342.75 137.62
  C 345.29 137.67 347.68 137.08 350.10 137.19
  C 353.77 137.34 357.32 136.90 361.00 137.21
  Q 362.25 137.31 363.00 137.28
  Q 371.02 136.90 379.04 136.74
  A 0.11 0.10 -20.5 0 0 379.12 136.57
  Q 379.02 136.44 378.92 136.31
  Q 378.84 136.21 378.72 136.19
  L 372.59 135.25
  A 1.18 1.16 69.1 0 1 372.02 134.99
  Q 370.43 133.65 368.64 134.64
  Q 368.17 134.90 367.62 134.87
  C 363.82 134.67 360.68 134.57 356.33 134.11
  Q 353.64 133.82 350.92 133.90
  C 349.38 133.95 347.90 133.25 346.24 133.46
  C 343.99 133.75 342.05 132.69 339.91 132.93
  Q 338.68 133.07 337.87 132.98
  C 334.45 132.56 331.39 133.55 327.78 132.61
  Q 325.67 132.07 323.66 132.17
  C 315.08 132.62 307.29 130.63 299.47 131.89
  C 297.83 132.15 296.59 131.50 295.17 131.52
  C 288.67 131.63 282.40 132.65 275.87 132.18
  Q 265.98 131.48 256.09 132.35
  Q 255.54 132.40 255.05 132.15
  Q 254.33 131.78 253.58 132.08
  Q 253.07 132.28 252.55 132.14
  Q 251.25 131.79 250.07 132.42
  Q 249.68 132.62 249.27 132.47
  L 248.11 132.04
  Q 247.54 131.82 247.01 132.13
  Q 244.31 133.70 241.02 132.39
  C 239.30 131.71 237.98 132.98 236.67 133.22
  Q 234.05 133.71 231.36 133.81
  Q 230.86 133.83 230.51 133.47
  Q 229.53 132.50 228.14 132.34
  A 0.33 0.32 -86.9 0 0 227.78 132.67
  Q 227.78 132.84 227.78 133.01
  Q 227.78 133.12 227.67 133.13
  Q 222.73 133.84 217.75 134.06
  Q 217.31 134.08 215.96 134.62
  Q 215.46 134.82 215.03 134.50
  Q 213.77 133.54 212.64 134.67
  Q 212.27 135.04 211.75 134.91
  L 209.98 134.46
  Q 209.47 134.33 208.96 134.44
  Q 206.28 135.01 203.52 134.90
  Q 203.20 134.89 203.00 134.64
  Q 202.91 134.53 202.78 134.46
  Q 202.75 134.44 202.72 134.44
  C 200.81 134.75 199.31 135.68 197.39 135.68
  C 193.62 135.68 189.79 136.30 186.19 136.32
  Q 179.58 136.36 172.99 137.06
  A 1.33 1.32 55.5 0 1 172.25 136.92
  Q 171.39 136.47 170.83 137.24
  Q 170.58 137.60 170.19 137.40
  Q 169.35 136.96 168.58 137.46
  Q 168.13 137.76 167.59 137.72
  Q 165.00 137.55 162.52 138.16
  A 2.73 2.36 -20.7 0 1 159.62 137.09
  Q 159.46 136.80 160.51 136.11
  Q 163.62 134.04 166.89 135.42
  Q 167.36 135.62 167.87 135.52
  Q 171.69 134.69 175.62 134.78
  Q 176.14 134.79 176.58 134.53
  C 178.93 133.13 181.33 133.75 183.80 133.78
  Q 185.53 133.80 188.15 133.24
  C 192.22 132.36 197.28 132.61 200.17 132.42
  Q 205.84 132.04 211.50 131.59
  C 216.48 131.19 224.16 131.16 230.49 130.18
  Q 233.85 129.67 237.09 130.52
  Q 237.58 130.65 238.07 130.52
  C 240.59 129.83 242.95 130.43 245.31 130.02
  Q 251.66 128.92 257.99 130.27
  Q 258.49 130.38 258.64 129.89
  Q 258.92 128.96 259.74 128.98
  Q 264.66 129.13 269.56 129.07
  Q 270.14 129.06 270.61 128.72
  Q 271.31 128.20 271.93 128.89
  A 1.46 1.45 -15.9 0 0 272.71 129.32
  Q 275.02 129.73 277.31 129.64
  C 279.05 129.58 281.65 130.08 283.75 129.40
  A 1.92 1.86 -49.2 0 1 284.54 129.33
  C 288.03 129.78 291.73 129.00 294.72 128.88
  Q 297.21 128.78 299.68 128.46
  C 302.37 128.12 304.47 128.82 307.05 128.67
  Q 312.52 128.36 317.85 129.64
  Q 318.34 129.76 318.78 129.52
  C 321.63 128.01 326.85 128.73 329.94 129.22
  Q 330.89 129.37 333.07 129.28
  C 334.61 129.22 335.90 129.81 337.31 129.76
  Q 342.14 129.59 346.93 130.00
  Q 347.76 130.07 351.05 129.85
  C 353.02 129.72 354.84 130.52 356.67 130.44
  Q 364.22 130.11 371.70 131.05
  C 378.68 131.93 385.23 130.54 392.15 132.49
  Q 394.74 133.22 396.97 133.12
  Q 399.97 132.99 403.33 133.01
  Q 403.66 133.01 403.68 133.34
  L 403.90 136.52
  Q 403.91 136.77 403.66 136.79
  Q 394.59 137.68 385.42 139.56
  C 384.53 139.74 383.72 139.31 382.89 139.56
  Q 377.31 141.19 371.57 140.55
  C 369.98 140.38 369.28 140.65 368.00 141.40
  A 0.87 0.87 0.0 0 1 367.11 141.39
  C 364.52 139.84 363.67 140.55 361.00 140.26
  Q 360.59 140.21 360.00 140.43
  Q 359.74 140.52 359.56 140.73
  Q 359.22 141.15 358.68 141.17
  Q 347.95 141.59 337.27 140.62
  C 336.25 140.52 335.46 139.84 334.25 139.93
  Q 331.50 140.15 328.75 140.38
  Q 326.86 140.53 323.28 140.22
  C 319.27 139.88 314.19 141.63 310.55 139.91
  Q 310.08 139.68 309.56 139.70
  L 289.73 140.28
  Q 289.23 140.30 288.88 139.94
  C 287.25 138.27 285.78 139.54 284.15 139.62
  Q 278.61 139.88 273.11 139.57
  Q 269.35 139.36 265.57 139.31
  C 263.11 139.28 260.24 140.57 257.18 139.38
  Q 256.71 139.19 256.23 139.37
  Q 253.48 140.36 250.60 140.22
  C 248.89 140.14 247.07 141.00 245.55 140.53
  Q 243.73 139.97 242.50 140.26
  Q 238.17 141.26 233.73 141.63
  A 0.70 0.69 74.5 0 1 233.03 141.23
  Q 232.63 140.38 231.75 140.72
  Q 229.93 141.43 228.06 141.95
  Q 226.48 142.40 224.26 142.15
  C 219.64 141.63 214.74 143.57 211.11 144.05
  Q 210.62 144.11 210.23 144.42
  Q 209.85 144.73 209.38 144.88
  A 0.90 0.89 -33.3 0 1 208.49 144.70
  Q 207.41 143.75 205.99 144.11
  Q 205.47 144.24 205.10 144.62
  Q 203.22 146.59 200.37 146.15
  Q 198.72 145.89 199.88 147.09
  Z"
/>
<rect fill="#0cbfe0" x="25.75" y="129.00" width="67.18" height="3.24" rx="0.82"/>
<ellipse fill="#0cbfe0" cx="0.00" cy="0.00" transform="translate(317.54,169.56) rotate(27.3)" rx="1.00" ry="0.30"/>
</svg>
